<?xml version="1.0" encoding="UTF-8" standalone="no"?>
<!-- Created with Inkscape (http://www.inkscape.org/) -->

<svg xmlns:dc="http://purl.org/dc/elements/1.1/" xmlns:cc="http://creativecommons.org/ns#" xmlns:rdf="http://www.w3.org/1999/02/22-rdf-syntax-ns#" xmlns:svg="http://www.w3.org/2000/svg" xmlns="http://www.w3.org/2000/svg" xmlns:sodipodi="http://sodipodi.sourceforge.net/DTD/sodipodi-0.dtd" xmlns:inkscape="http://www.inkscape.org/namespaces/inkscape" width="7200" height="720" viewBox="0 0 1905 190.5" version="1.1" id="svg297" inkscape:version="0.92.2 5c3e80d, 2017-08-06" sodipodi:docname="1974-takeover.svg">
  <defs id="defs291">
    <inkscape:perspective sodipodi:type="inkscape:persp3d" inkscape:vp_x="0 : 19.05 : 1" inkscape:vp_y="0 : 999.99997 : 0" inkscape:vp_z="270.93334 : 19.05 : 1" inkscape:persp3d-origin="135.46667 : 12.7 : 1" id="perspective4975" />
  </defs>
  <sodipodi:namedview id="base" pagecolor="#ffffff" bordercolor="#666666" borderopacity="1.0" inkscape:pageopacity="0.0" inkscape:pageshadow="2" inkscape:zoom="0.93359375" inkscape:cx="6046.0137" inkscape:cy="345.93748" inkscape:document-units="px" inkscape:current-layer="layer1" showgrid="true" units="px" inkscape:snap-bbox="false" inkscape:snap-smooth-nodes="true" inkscape:window-width="1440" inkscape:window-height="855" inkscape:window-x="0" inkscape:window-y="1" inkscape:window-maximized="1" inkscape:measure-start="889.191,171.552" inkscape:measure-end="835.485,170.795" inkscape:object-paths="true" inkscape:snap-intersection-paths="true" inkscape:snap-grids="true" showborder="true">
    <inkscape:grid type="xygrid" id="grid299" spacingx="21.166667" spacingy="21.166667" empspacing="3" />
    <inkscape:grid type="xygrid" id="grid301" dotted="true" spacingx="2.6458333" spacingy="2.6458333" empspacing="4" />
  </sodipodi:namedview>
  <metadata id="metadata294">
    <rdf:RDF>
      <cc:Work rdf:about="">
        <dc:format>image/svg+xml</dc:format>
        <dc:type rdf:resource="http://purl.org/dc/dcmitype/StillImage" />
        <dc:title></dc:title>
      </cc:Work>
    </rdf:RDF>
  </metadata>
  <g inkscape:label="Layer 1" inkscape:groupmode="layer" id="layer1" transform="translate(0,-106.49999)">
    <path style="color:#000000;font-style:normal;font-variant:normal;font-weight:normal;font-stretch:normal;font-size:medium;line-height:normal;font-family:sans-serif;font-variant-ligatures:normal;font-variant-position:normal;font-variant-caps:normal;font-variant-numeric:normal;font-variant-alternates:normal;font-feature-settings:normal;text-indent:0;text-align:start;text-decoration:none;text-decoration-line:none;text-decoration-style:solid;text-decoration-color:#000000;letter-spacing:normal;word-spacing:normal;text-transform:none;writing-mode:lr-tb;direction:ltr;text-orientation:mixed;dominant-baseline:auto;baseline-shift:baseline;text-anchor:start;white-space:normal;shape-padding:0;clip-rule:nonzero;display:inline;overflow:visible;visibility:visible;opacity:1;isolation:auto;mix-blend-mode:normal;color-interpolation:sRGB;color-interpolation-filters:linearRGB;solid-color:#000000;solid-opacity:1;vector-effect:none;fill:#000000;fill-opacity:1;fill-rule:evenodd;stroke:none;stroke-width:4.23333359;stroke-linecap:butt;stroke-linejoin:round;stroke-miterlimit:4;stroke-dasharray:none;stroke-dashoffset:0;stroke-opacity:1;color-rendering:auto;image-rendering:auto;shape-rendering:auto;text-rendering:auto;enable-background:accumulate" d="m 285.75196,106.50197 c -22.13097,5e-5 -39.62532,12.4579 -49.58008,30.1953 -9.95476,17.73745 -13.92578,40.4711 -13.92578,65.04885 0,24.5777 3.97102,47.3114 13.92578,65.0488 9.95476,17.73745 27.44909,30.20515 49.58008,30.2051 22.131,5e-5 39.62532,-12.46765 49.58007,-30.2051 9.95476,-17.7374 13.91602,-40.4711 13.91602,-65.0488 0,-24.57775 -3.96126,-47.3114 -13.91602,-65.04885 -9.95475,-17.7374 -27.44909,-30.19525 -49.58007,-30.1953 z m 0,21.1621 c 14.91071,5e-5 23.87013,6.4887 31.11328,19.39455 7.24314,12.90585 11.2207,32.5051 11.2207,54.6875 0,22.18235 -3.97756,41.7914 -11.2207,54.69725 -7.24315,12.9059 -16.20259,19.39455 -31.11328,19.39455 -14.91067,0 -23.8799,-6.48865 -31.12305,-19.39455 -7.24315,-12.90585 -11.21094,-32.5149 -11.21094,-54.69725 0,-22.1824 3.96779,-41.78165 11.21094,-54.6875 7.24315,-12.90585 16.21236,-19.3945 31.12305,-19.39455 z" id="path1118" inkscape:connector-curvature="0" />
    <path style="opacity:1;vector-effect:none;fill:#000000;fill-opacity:1;stroke:#000000;stroke-width:0;stroke-linecap:butt;stroke-linejoin:round;stroke-miterlimit:4;stroke-dasharray:none;stroke-dashoffset:0;stroke-opacity:1" d="m 105.83335,296.99997 -10e-6,-190.5 H 84.666663 c 0,0 0,21.16665 -10.583325,31.75 v 31.75 h 10.58333 v 127 z" id="path1120" inkscape:connector-curvature="0" sodipodi:nodetypes="cccccccc" />
    <path style="color:#000000;font-style:normal;font-variant:normal;font-weight:normal;font-stretch:normal;font-size:medium;line-height:normal;font-family:sans-serif;font-variant-ligatures:normal;font-variant-position:normal;font-variant-caps:normal;font-variant-numeric:normal;font-variant-alternates:normal;font-feature-settings:normal;text-indent:0;text-align:start;text-decoration:none;text-decoration-line:none;text-decoration-style:solid;text-decoration-color:#000000;letter-spacing:normal;word-spacing:normal;text-transform:none;writing-mode:lr-tb;direction:ltr;text-orientation:mixed;dominant-baseline:auto;baseline-shift:baseline;text-anchor:start;white-space:normal;shape-padding:0;clip-rule:nonzero;display:inline;overflow:visible;visibility:visible;opacity:1;isolation:auto;mix-blend-mode:normal;color-interpolation:sRGB;color-interpolation-filters:linearRGB;solid-color:#000000;solid-opacity:1;vector-effect:none;fill:#000000;fill-opacity:1;fill-rule:evenodd;stroke:none;stroke-width:4.23333359;stroke-linecap:butt;stroke-linejoin:round;stroke-miterlimit:4;stroke-dasharray:none;stroke-dashoffset:0;stroke-opacity:1;color-rendering:auto;image-rendering:auto;shape-rendering:auto;text-rendering:auto;enable-background:accumulate" d="m 476.25001,106.50259 c -20.49784,0 -38.90761,12.91391 -48.45699,32.37271 -9.48924,19.3363 -9.75651,41.49303 -9.75651,62.87213 0,21.379 0.26731,43.5332 9.75651,62.86954 0.2303,0.46931 0.49071,0.91558 0.73123,1.37718 1.2495,2.39807 2.63263,4.68973 4.14186,6.86521 0.26041,0.37788 0.52286,0.75289 0.79064,1.12397 0.33558,0.46163 0.67129,0.92171 1.01804,1.37201 8.51126,11.14151 20.42172,18.92899 34.18396,21.04781 0.0231,0.004 0.0466,0.007 0.0697,0.0106 0.84699,0.12911 1.69994,0.23737 2.56057,0.32297 0.521,0.0534 1.04395,0.10293 1.56838,0.13953 0.30159,0.0204 0.60381,0.0367 0.90691,0.0517 0.82556,0.0422 1.65274,0.0724 2.48564,0.0724 31.5703,0 55.56768,-29.40803 55.56768,-63.49483 0,-34.08675 -23.99738,-63.50775 -55.56768,-63.50775 -14.32462,0 -27.07783,6.07109 -36.7497,15.87241 0.61495,-14.63553 2.42417,-27.7407 7.29672,-37.66953 6.52013,-13.28605 17.81183,-20.53622 29.45298,-20.53622 20.33208,0 31.95413,12.51862 31.95413,12.51862 l 15.46675,-14.45132 c 0,0 -18.07058,-19.2288 -47.42088,-19.2288 z m 0,84.66667 c 18.11225,0 34.39584,17.97257 34.39584,42.33592 0,24.36336 -16.28359,42.33334 -34.39584,42.33334 -0.65422,0 -1.3073,-0.0319 -1.95853,-0.0775 -0.24604,-0.0176 -0.49127,-0.043 -0.73639,-0.0672 -0.36861,-0.0356 -0.73623,-0.0791 -1.10329,-0.12925 -0.34308,-0.0477 -0.68493,-0.0971 -1.02578,-0.15762 -0.21865,-0.0381 -0.43579,-0.086 -0.6537,-0.12925 -6.37055,-1.28658 -12.30706,-4.76999 -17.12299,-9.91154 -0.23139,-0.24993 -0.46065,-0.50376 -0.68731,-0.76223 -0.18354,-0.20673 -0.36777,-0.41106 -0.54776,-0.6227 -2.11664,-2.52142 -4.01265,-5.41972 -5.61723,-8.68939 -1.15168,-2.34679 -2.12373,-4.88123 -2.95848,-7.56027 -1.2725,-4.40072 -1.98179,-9.17215 -1.98179,-14.22652 0,-24.36335 16.281,-42.33592 34.39325,-42.33592 z" id="path1122" inkscape:connector-curvature="0" />
    <path style="color:#000000;font-style:normal;font-variant:normal;font-weight:normal;font-stretch:normal;font-size:medium;line-height:normal;font-family:sans-serif;font-variant-ligatures:normal;font-variant-position:normal;font-variant-caps:normal;font-variant-numeric:normal;font-variant-alternates:normal;font-feature-settings:normal;text-indent:0;text-align:start;text-decoration:none;text-decoration-line:none;text-decoration-style:solid;text-decoration-color:#000000;letter-spacing:normal;word-spacing:normal;text-transform:none;writing-mode:lr-tb;direction:ltr;text-orientation:mixed;dominant-baseline:auto;baseline-shift:baseline;text-anchor:start;white-space:normal;shape-padding:0;clip-rule:nonzero;display:inline;overflow:visible;visibility:visible;opacity:1;isolation:auto;mix-blend-mode:normal;color-interpolation:sRGB;color-interpolation-filters:linearRGB;solid-color:#000000;solid-opacity:1;vector-effect:none;fill:#000000;fill-opacity:1;fill-rule:evenodd;stroke:none;stroke-width:4.23333359;stroke-linecap:butt;stroke-linejoin:round;stroke-miterlimit:4;stroke-dasharray:none;stroke-dashoffset:0;stroke-opacity:1;color-rendering:auto;image-rendering:auto;shape-rendering:auto;text-rendering:auto;enable-background:accumulate" d="m 666.74744,106.50259 c -28.0001,0 -51.59117,21.64309 -51.59117,48.94534 0,15.28843 7.39899,28.79874 18.82572,37.73155 -15.29823,10.24393 -25.43773,27.42591 -25.43773,46.93512 0,31.455 26.33983,56.88541 58.20318,56.88541 31.86335,0 58.21349,-25.43041 58.21349,-56.88541 0,-19.51037 -10.14287,-36.69399 -25.44547,-46.93771 11.42511,-8.93283 18.82314,-22.44181 18.82314,-37.72896 0,-27.30225 -23.59111,-48.94534 -51.59116,-48.94534 z m 0,21.1615 c 17.29879,0 30.42966,12.70979 30.42966,27.78384 0,15.07405 -13.13087,27.78383 -30.42966,27.78383 -17.2988,0 -30.42968,-12.70978 -30.42968,-27.78383 0,-15.07405 13.13088,-27.78384 30.42968,-27.78384 z m 0,76.72917 c 20.74175,0 37.04167,16.03244 37.04167,35.72134 0,19.68885 -16.29992,35.72392 -37.04167,35.72392 -20.7418,0 -37.03909,-16.03507 -37.03909,-35.72392 0,-19.6889 16.29729,-35.72134 37.03909,-35.72134 z" id="circle1138" inkscape:connector-curvature="0" />
    <path style="color:#000000;font-style:normal;font-variant:normal;font-weight:normal;font-stretch:normal;font-size:medium;line-height:normal;font-family:sans-serif;font-variant-ligatures:normal;font-variant-position:normal;font-variant-caps:normal;font-variant-numeric:normal;font-variant-alternates:normal;font-feature-settings:normal;text-indent:0;text-align:start;text-decoration:none;text-decoration-line:none;text-decoration-style:solid;text-decoration-color:#000000;letter-spacing:normal;word-spacing:normal;text-transform:none;writing-mode:lr-tb;direction:ltr;text-orientation:mixed;dominant-baseline:auto;baseline-shift:baseline;text-anchor:start;white-space:normal;shape-padding:0;clip-rule:nonzero;display:inline;overflow:visible;visibility:visible;opacity:1;isolation:auto;mix-blend-mode:normal;color-interpolation:sRGB;color-interpolation-filters:linearRGB;solid-color:#000000;solid-opacity:1;vector-effect:none;fill:#000000;fill-opacity:1;fill-rule:nonzero;stroke:none;stroke-width:4.23333359;stroke-linecap:butt;stroke-linejoin:miter;stroke-miterlimit:4;stroke-dasharray:none;stroke-dashoffset:0;stroke-opacity:1;color-rendering:auto;image-rendering:auto;shape-rendering:auto;text-rendering:auto;enable-background:accumulate" d="m 809.6302,106.50259 v 95.24484 c 0,0 -0.005,0.003 16.91368,6.33553 12.05066,-12.0506 30.3302,-15.06681 45.61479,-7.52926 15.2846,7.53755 24.02152,23.87641 21.79712,40.77271 -2.22445,16.89635 -14.8984,30.4148 -31.61305,33.73954 -16.71466,3.32475 -33.5875,-4.31229 -42.10855,-19.07118 l -18.32963,10.57558 c 13.01536,22.5432 39.03921,34.33495 64.56971,29.25661 25.5305,-5.0783 45.06967,-25.92786 48.46733,-51.73586 3.39765,-25.80795 -10.073,-51.00764 -33.41915,-62.52073 -5.83655,-2.87825 -11.979,-4.75061 -18.1927,-5.64565 -11.04179,-1.59053 -22.30959,-0.0849 -32.53806,4.25555 v -52.51618 h 74.08076 v -21.1615 z" id="path1161" inkscape:connector-curvature="0" sodipodi:nodetypes="cccscscccsccccccc" />
    <path style="color:#000000;font-style:normal;font-variant:normal;font-weight:normal;font-stretch:normal;font-size:medium;line-height:normal;font-family:sans-serif;font-variant-ligatures:normal;font-variant-position:normal;font-variant-caps:normal;font-variant-numeric:normal;font-variant-alternates:normal;font-feature-settings:normal;text-indent:0;text-align:start;text-decoration:none;text-decoration-line:none;text-decoration-style:solid;text-decoration-color:#000000;letter-spacing:normal;word-spacing:normal;text-transform:none;writing-mode:lr-tb;direction:ltr;text-orientation:mixed;dominant-baseline:auto;baseline-shift:baseline;text-anchor:start;white-space:normal;shape-padding:0;clip-rule:nonzero;display:inline;overflow:visible;visibility:visible;opacity:1;isolation:auto;mix-blend-mode:normal;color-interpolation:sRGB;color-interpolation-filters:linearRGB;solid-color:#000000;solid-opacity:1;vector-effect:none;fill:#000000;fill-opacity:1;fill-rule:nonzero;stroke:none;stroke-width:4.23333359;stroke-linecap:butt;stroke-linejoin:bevel;stroke-miterlimit:4;stroke-dasharray:none;stroke-dashoffset:0;stroke-opacity:1;color-rendering:auto;image-rendering:auto;shape-rendering:auto;text-rendering:auto;enable-background:accumulate" d="m 994.83335,106.49997 -5e-5,21.16405 h 89.9584 l -73.8947,169.33335 h 23.089 l 73.2952,-169.33335 -9.2604,-21.16665 z" id="path1190" inkscape:connector-curvature="0" sodipodi:nodetypes="cccccccc" />
    <path style="color:#000000;font-style:normal;font-variant:normal;font-weight:normal;font-stretch:normal;font-size:medium;line-height:normal;font-family:sans-serif;font-variant-ligatures:normal;font-variant-position:normal;font-variant-caps:normal;font-variant-numeric:normal;font-variant-alternates:normal;font-feature-settings:normal;text-indent:0;text-align:start;text-decoration:none;text-decoration-line:none;text-decoration-style:solid;text-decoration-color:#000000;letter-spacing:normal;word-spacing:normal;text-transform:none;writing-mode:lr-tb;direction:ltr;text-orientation:mixed;dominant-baseline:auto;baseline-shift:baseline;text-anchor:start;white-space:normal;shape-padding:0;clip-rule:nonzero;display:inline;overflow:visible;visibility:visible;opacity:1;isolation:auto;mix-blend-mode:normal;color-interpolation:sRGB;color-interpolation-filters:linearRGB;solid-color:#000000;solid-opacity:1;vector-effect:none;fill:#000000;fill-opacity:1;fill-rule:nonzero;stroke:none;stroke-width:4.23333359;stroke-linecap:butt;stroke-linejoin:bevel;stroke-miterlimit:4;stroke-dasharray:none;stroke-dashoffset:0;stroke-opacity:1;color-rendering:auto;image-rendering:auto;shape-rendering:auto;text-rendering:auto;enable-background:accumulate" d="m 1259.4148,106.49992 -79.375,127 10.5834,21.16665 68.7884,-6e-4 v 42.334 h 21.1718 v -42.334 h 15.8776 v -21.1621 h -15.8776 V 106.49992 Z m 0,41.877 v 85.12695 h -54.8522 z" id="path1215" inkscape:connector-curvature="0" sodipodi:nodetypes="cccccccccccccccc" />
    <path style="color:#000000;font-style:normal;font-variant:normal;font-weight:normal;font-stretch:normal;font-size:medium;line-height:normal;font-family:sans-serif;font-variant-ligatures:normal;font-variant-position:normal;font-variant-caps:normal;font-variant-numeric:normal;font-variant-alternates:normal;font-feature-settings:normal;text-indent:0;text-align:start;text-decoration:none;text-decoration-line:none;text-decoration-style:solid;text-decoration-color:#000000;letter-spacing:normal;word-spacing:normal;text-transform:none;writing-mode:lr-tb;direction:ltr;text-orientation:mixed;dominant-baseline:auto;baseline-shift:baseline;text-anchor:start;white-space:normal;shape-padding:0;clip-rule:nonzero;display:inline;overflow:visible;visibility:visible;opacity:1;isolation:auto;mix-blend-mode:normal;color-interpolation:sRGB;color-interpolation-filters:linearRGB;solid-color:#000000;solid-opacity:1;vector-effect:none;fill:#000000;fill-opacity:1;fill-rule:nonzero;stroke:none;stroke-width:4.23333359;stroke-linecap:butt;stroke-linejoin:miter;stroke-miterlimit:4;stroke-dasharray:none;stroke-dashoffset:0;stroke-opacity:1;color-rendering:auto;image-rendering:auto;shape-rendering:auto;text-rendering:auto;enable-background:accumulate" d="m 1428.75,106.50197 c -30.868,0 -50.6836,27.9004 -50.6836,27.9004 l 16.709,12.98825 c 0,0 17.2177,-19.72655 33.9746,-19.72655 19.1088,0 31.7481,11.47185 31.7481,26.46485 0,7.05555 -3.3692,13.2895 -10.42,20.92775 -7.0507,7.63825 -17.4355,15.8347 -28.3007,25.3418 -21.7306,19.0142 -45.9473,44.9422 -45.9473,86.0156 v 10.58595 h 105.8398 v -21.1621 h -83.1738 c 3.5873,-26.3504 19.0618,-43.6176 37.2266,-59.51175 10.3014,-9.0137 21.0878,-17.3544 29.9121,-26.91405 8.8243,-9.55965 16.0351,-21.1721 16.0351,-35.2832 0,-27.34025 -24.4037,-47.62695 -52.9199,-47.62695 z" id="path5051" inkscape:connector-curvature="0" />
    <path style="color:#000000;font-style:normal;font-variant:normal;font-weight:normal;font-stretch:normal;font-size:medium;line-height:normal;font-family:sans-serif;font-variant-ligatures:normal;font-variant-position:normal;font-variant-caps:normal;font-variant-numeric:normal;font-variant-alternates:normal;font-feature-settings:normal;text-indent:0;text-align:start;text-decoration:none;text-decoration-line:none;text-decoration-style:solid;text-decoration-color:#000000;letter-spacing:normal;word-spacing:normal;text-transform:none;writing-mode:lr-tb;direction:ltr;text-orientation:mixed;dominant-baseline:auto;baseline-shift:baseline;text-anchor:start;white-space:normal;shape-padding:0;clip-rule:nonzero;display:inline;overflow:visible;visibility:visible;opacity:1;isolation:auto;mix-blend-mode:normal;color-interpolation:sRGB;color-interpolation-filters:linearRGB;solid-color:#000000;solid-opacity:1;vector-effect:none;fill:#000000;fill-opacity:1;fill-rule:evenodd;stroke:none;stroke-width:4.23333359;stroke-linecap:butt;stroke-linejoin:round;stroke-miterlimit:4;stroke-dasharray:none;stroke-dashoffset:0;stroke-opacity:1;color-rendering:auto;image-rendering:auto;shape-rendering:auto;text-rendering:auto;enable-background:accumulate" d="m 1618.9839,106.48192 c -17.7205,0.0635 -34.7354,8.7986 -44.2582,24.2285 l 18.0195,11.11302 c 7.205,-11.6743 22.9699,-17.22775 37.1192,-12.4101 14.1494,4.8177 21.8307,17.70566 19.3735,30.74231 -2.4573,13.0366 -14.8272,23.07611 -29.9905,23.07611 v 21.1615 c 18.1871,0 33.4088,12.55841 36.494,29.56926 3.0852,17.01084 -6.6844,33.65579 -23.7298,39.6875 -17.0454,6.03169 -35.9681,-0.74614 -44.9017,-15.78974 l -18.203,10.81072 c 14.1785,23.8758 43.7752,34.27009 70.1663,24.93129 26.3911,-9.33875 42.4302,-36.17325 37.4887,-63.4199 -2.8184,-15.53917 -11.9506,-28.61527 -24.474,-36.99258 9.1255,-7.13177 15.7148,-17.2486 17.9524,-29.11967 4.4546,-23.63385 -10.0977,-46.76873 -33.3521,-54.68659 -5.8135,-1.97945 -11.7975,-2.92278 -17.7043,-2.90163 z" id="ellipse5187" inkscape:connector-curvature="0" />
    <path style="opacity:1;vector-effect:none;fill:none;fill-opacity:1;stroke:#000000;stroke-width:4.23333359;stroke-linecap:butt;stroke-linejoin:round;stroke-miterlimit:4;stroke-dasharray:none;stroke-dashoffset:0;stroke-opacity:1" d="m 1603.375,193.81242 h 15.875" id="path5191" inkscape:connector-curvature="0" />
  </g>
</svg>
