<?xml version="1.0" encoding="UTF-8" standalone="no"?>
<!-- Created with Inkscape (http://www.inkscape.org/) -->

<svg xmlns:dc="http://purl.org/dc/elements/1.1/" xmlns:cc="http://creativecommons.org/ns#" xmlns:rdf="http://www.w3.org/1999/02/22-rdf-syntax-ns#" xmlns:svg="http://www.w3.org/2000/svg" xmlns="http://www.w3.org/2000/svg" xmlns:sodipodi="http://sodipodi.sourceforge.net/DTD/sodipodi-0.dtd" xmlns:inkscape="http://www.inkscape.org/namespaces/inkscape" width="1440" height="144" viewBox="0 0 381 38.100001" version="1.1" id="svg297" inkscape:version="0.92.2 5c3e80d, 2017-08-06" sodipodi:docname="1974-takeover.svg">
  <defs id="defs291">
    <inkscape:perspective sodipodi:type="inkscape:persp3d" inkscape:vp_x="0 : 19.05 : 1" inkscape:vp_y="0 : 1000 : 0" inkscape:vp_z="270.93334 : 19.05 : 1" inkscape:persp3d-origin="135.46667 : 12.7 : 1" id="perspective4975" />
  </defs>
  <sodipodi:namedview id="base" pagecolor="#ffffff" bordercolor="#666666" borderopacity="1.0" inkscape:pageopacity="0.0" inkscape:pageshadow="2" inkscape:zoom="0.93359375" inkscape:cx="612.24225" inkscape:cy="66.813132" inkscape:document-units="px" inkscape:current-layer="layer1" showgrid="true" units="px" inkscape:snap-bbox="false" inkscape:snap-smooth-nodes="true" inkscape:window-width="1440" inkscape:window-height="855" inkscape:window-x="0" inkscape:window-y="1" inkscape:window-maximized="1" inkscape:measure-start="889.191,171.552" inkscape:measure-end="835.485,170.795" inkscape:object-paths="true" inkscape:snap-intersection-paths="true" inkscape:snap-grids="true" showborder="true">
    <inkscape:grid type="xygrid" id="grid299" spacingx="4.2333334" spacingy="4.2333334" empspacing="3" />
    <inkscape:grid type="xygrid" id="grid301" dotted="true" spacingx="0.52916667" spacingy="0.52916667" empspacing="4" />
  </sodipodi:namedview>
  <metadata id="metadata294">
    <rdf:RDF>
      <cc:Work rdf:about="">
        <dc:format>image/svg+xml</dc:format>
        <dc:type rdf:resource="http://purl.org/dc/dcmitype/StillImage" />
        <dc:title></dc:title>
      </cc:Work>
    </rdf:RDF>
  </metadata>
  <g inkscape:label="Layer 1" inkscape:groupmode="layer" id="layer1" transform="translate(0,-258.89999)">
    <path style="color:#000000;font-style:normal;font-variant:normal;font-weight:normal;font-stretch:normal;font-size:medium;line-height:normal;font-family:sans-serif;font-variant-ligatures:normal;font-variant-position:normal;font-variant-caps:normal;font-variant-numeric:normal;font-variant-alternates:normal;font-feature-settings:normal;text-indent:0;text-align:start;text-decoration:none;text-decoration-line:none;text-decoration-style:solid;text-decoration-color:#000000;letter-spacing:normal;word-spacing:normal;text-transform:none;writing-mode:lr-tb;direction:ltr;text-orientation:mixed;dominant-baseline:auto;baseline-shift:baseline;text-anchor:start;white-space:normal;shape-padding:0;clip-rule:nonzero;display:inline;overflow:visible;visibility:visible;opacity:1;isolation:auto;mix-blend-mode:normal;color-interpolation:sRGB;color-interpolation-filters:linearRGB;solid-color:#000000;solid-opacity:1;vector-effect:none;fill:#000000;fill-opacity:1;fill-rule:evenodd;stroke:none;stroke-width:4.23333359;stroke-linecap:butt;stroke-linejoin:round;stroke-miterlimit:4;stroke-dasharray:none;stroke-dashoffset:0;stroke-opacity:1;color-rendering:auto;image-rendering:auto;shape-rendering:auto;text-rendering:auto;enable-background:accumulate" d="m 57.150391,258.90039 c -4.426194,10e-6 -7.925064,2.49158 -9.916016,6.03906 -1.990952,3.54749 -2.785156,8.09422 -2.785156,13.00977 0,4.91554 0.794204,9.46228 2.785156,13.00976 1.990952,3.54749 5.489819,6.04103 9.916016,6.04102 4.4262,10e-6 7.925064,-2.49353 9.916015,-6.04102 1.990951,-3.54748 2.783203,-8.09422 2.783203,-13.00976 0,-4.91555 -0.792252,-9.46228 -2.783203,-13.00977 -1.990951,-3.54748 -5.489818,-6.03905 -9.916015,-6.03906 z m 0,4.23242 c 2.982142,10e-6 4.774027,1.29774 6.222656,3.87891 1.448629,2.58117 2.244141,6.50102 2.244141,10.9375 0,4.43647 -0.795512,8.35828 -2.244141,10.93945 -1.448629,2.58118 -3.240517,3.87891 -6.222656,3.87891 -2.982134,0 -4.77598,-1.29773 -6.22461,-3.87891 -1.44863,-2.58117 -2.242187,-6.50298 -2.242187,-10.93945 0,-4.43648 0.793557,-8.35633 2.242187,-10.9375 1.44863,-2.58117 3.242473,-3.8789 6.22461,-3.87891 z" id="path1118" inkscape:connector-curvature="0" />
    <path style="opacity:1;vector-effect:none;fill:#000000;fill-opacity:1;stroke:#000000;stroke-width:0;stroke-linecap:butt;stroke-linejoin:round;stroke-miterlimit:4;stroke-dasharray:none;stroke-dashoffset:0;stroke-opacity:1" d="m 21.166669,296.99999 -2e-6,-38.1 h -4.233335 c 0,0 0,4.23333 -2.116665,6.35 v 6.35 h 2.116666 v 25.4 z" id="path1120" inkscape:connector-curvature="0" sodipodi:nodetypes="cccccccc" />
    <path style="color:#000000;font-style:normal;font-variant:normal;font-weight:normal;font-stretch:normal;font-size:medium;line-height:normal;font-family:sans-serif;font-variant-ligatures:normal;font-variant-position:normal;font-variant-caps:normal;font-variant-numeric:normal;font-variant-alternates:normal;font-feature-settings:normal;text-indent:0;text-align:start;text-decoration:none;text-decoration-line:none;text-decoration-style:solid;text-decoration-color:#000000;letter-spacing:normal;word-spacing:normal;text-transform:none;writing-mode:lr-tb;direction:ltr;text-orientation:mixed;dominant-baseline:auto;baseline-shift:baseline;text-anchor:start;white-space:normal;shape-padding:0;clip-rule:nonzero;display:inline;overflow:visible;visibility:visible;opacity:1;isolation:auto;mix-blend-mode:normal;color-interpolation:sRGB;color-interpolation-filters:linearRGB;solid-color:#000000;solid-opacity:1;vector-effect:none;fill:#000000;fill-opacity:1;fill-rule:evenodd;stroke:none;stroke-width:16;stroke-linecap:butt;stroke-linejoin:round;stroke-miterlimit:4;stroke-dasharray:none;stroke-dashoffset:0;stroke-opacity:1;color-rendering:auto;image-rendering:auto;shape-rendering:auto;text-rendering:auto;enable-background:accumulate" d="M 360 0.001953125 C 344.50557 0.001953125 330.58952 9.7636423 323.37109 24.472656 C 316.19812 39.089072 315.99609 55.837468 315.99609 71.998047 C 315.99609 88.158551 316.19815 104.90503 323.37109 119.52148 C 323.54518 119.87623 323.74202 120.21357 323.92383 120.5625 C 324.86834 122.37521 325.91385 124.10749 327.05469 125.75195 C 327.25153 126.03759 327.44992 126.32106 327.65234 126.60156 C 327.906 126.95051 328.15977 127.29829 328.42188 127.63867 C 334.85559 136.0606 343.85877 141.9472 354.26172 143.54883 C 354.27926 143.5516 354.2969 143.5539 354.31445 143.55664 C 354.9547 143.65428 355.59945 143.73607 356.25 143.80078 C 356.64383 143.84117 357.03913 143.87853 357.43555 143.90625 C 357.66352 143.92166 357.89197 143.934 358.12109 143.94531 C 358.74513 143.97725 359.3704 144 360 144 C 383.86416 144 402.00391 121.77031 402.00391 96.003906 C 402.00391 70.237544 383.86416 47.998047 360 47.998047 C 349.17194 47.998047 339.53172 52.587222 332.2207 59.996094 C 332.68554 48.933013 334.05314 39.026746 337.73633 31.521484 C 342.66493 21.478486 351.20039 15.998047 360 15.998047 C 375.36913 15.998047 384.1543 25.460938 384.1543 25.460938 L 395.8457 14.537109 C 395.8457 14.537109 382.18605 0.001953125 360 0.001953125 z M 360 64.001953 C 373.69115 64.001953 386 77.587516 386 96.003906 C 386 114.4203 373.69115 128.00391 360 128.00391 C 359.50547 128.00391 359.0118 127.97982 358.51953 127.94531 C 358.33355 127.932 358.14818 127.9128 357.96289 127.89453 C 357.68426 127.86761 357.40637 127.83478 357.12891 127.79688 C 356.86957 127.76075 356.61117 127.72345 356.35352 127.67773 C 356.18824 127.64894 356.0241 127.61276 355.85938 127.58008 C 351.04385 126.60755 346.55641 123.97442 342.91602 120.08789 C 342.74111 119.89897 342.56781 119.7071 342.39648 119.51172 C 342.25774 119.35545 342.11848 119.201 341.98242 119.04102 C 340.38244 117.13506 338.94924 114.94422 337.73633 112.47266 C 336.86577 110.69871 336.13099 108.78291 335.5 106.75781 C 334.53811 103.43128 334.00195 99.824531 334.00195 96.003906 C 334.00195 77.587516 346.30885 64.001953 360 64.001953 z " transform="matrix(0.26458334,0,0,0.26458334,0,258.89999)" id="path1122" />
    <path style="color:#000000;font-style:normal;font-variant:normal;font-weight:normal;font-stretch:normal;font-size:medium;line-height:normal;font-family:sans-serif;font-variant-ligatures:normal;font-variant-position:normal;font-variant-caps:normal;font-variant-numeric:normal;font-variant-alternates:normal;font-feature-settings:normal;text-indent:0;text-align:start;text-decoration:none;text-decoration-line:none;text-decoration-style:solid;text-decoration-color:#000000;letter-spacing:normal;word-spacing:normal;text-transform:none;writing-mode:lr-tb;direction:ltr;text-orientation:mixed;dominant-baseline:auto;baseline-shift:baseline;text-anchor:start;white-space:normal;shape-padding:0;clip-rule:nonzero;display:inline;overflow:visible;visibility:visible;opacity:1;isolation:auto;mix-blend-mode:normal;color-interpolation:sRGB;color-interpolation-filters:linearRGB;solid-color:#000000;solid-opacity:1;vector-effect:none;fill:#000000;fill-opacity:1;fill-rule:evenodd;stroke:none;stroke-width:16;stroke-linecap:butt;stroke-linejoin:round;stroke-miterlimit:4;stroke-dasharray:none;stroke-dashoffset:0;stroke-opacity:1;color-rendering:auto;image-rendering:auto;shape-rendering:auto;text-rendering:auto;enable-background:accumulate" d="M 503.99805 0.001953125 C 482.83262 0.001953125 465 16.362079 465 37 C 465 48.556609 470.59294 58.769125 479.23047 65.521484 C 467.66645 73.264931 460.00195 86.252884 460.00195 101 C 460.00195 124.77701 479.91237 144 503.99805 144 C 528.08373 144 548.00195 124.77701 548.00195 101 C 548.00195 86.252009 540.3349 73.262814 528.76758 65.519531 C 537.40388 58.767158 542.99609 48.555643 542.99609 37 C 542.99609 16.362079 525.16344 0.001953125 503.99805 0.001953125 z M 503.99805 15.998047 C 517.0743 15.998047 527 25.605443 527 37 C 527 48.394557 517.0743 58.001953 503.99805 58.001953 C 490.92179 58.001953 480.99609 48.394557 480.99609 37 C 480.99609 25.605443 490.92179 15.998047 503.99805 15.998047 z M 503.99805 73.998047 C 519.67685 73.998047 531.99805 86.117052 531.99805 101 C 531.99805 115.88291 519.67685 128.00391 503.99805 128.00391 C 488.31921 128.00391 476 115.88291 476 101 C 476 86.117052 488.31921 73.998047 503.99805 73.998047 z " transform="matrix(0.26458334,0,0,0.26458334,0,258.89999)" id="circle1138" />
    <path style="color:#000000;font-style:normal;font-variant:normal;font-weight:normal;font-stretch:normal;font-size:medium;line-height:normal;font-family:sans-serif;font-variant-ligatures:normal;font-variant-position:normal;font-variant-caps:normal;font-variant-numeric:normal;font-variant-alternates:normal;font-feature-settings:normal;text-indent:0;text-align:start;text-decoration:none;text-decoration-line:none;text-decoration-style:solid;text-decoration-color:#000000;letter-spacing:normal;word-spacing:normal;text-transform:none;writing-mode:lr-tb;direction:ltr;text-orientation:mixed;dominant-baseline:auto;baseline-shift:baseline;text-anchor:start;white-space:normal;shape-padding:0;clip-rule:nonzero;display:inline;overflow:visible;visibility:visible;opacity:1;isolation:auto;mix-blend-mode:normal;color-interpolation:sRGB;color-interpolation-filters:linearRGB;solid-color:#000000;solid-opacity:1;vector-effect:none;fill:#000000;fill-opacity:1;fill-rule:nonzero;stroke:none;stroke-width:16;stroke-linecap:butt;stroke-linejoin:miter;stroke-miterlimit:4;stroke-dasharray:none;stroke-dashoffset:0;stroke-opacity:1;color-rendering:auto;image-rendering:auto;shape-rendering:auto;text-rendering:auto;enable-background:accumulate" d="M 612.00391,0.00195313 V 71.998047 c 0,0 -0.004,0.002 12.78515,4.789062 9.10916,-9.109114 22.92676,-11.389081 34.48047,-5.691406 11.55371,5.697676 18.158,18.048306 16.47656,30.820317 -1.68147,12.77204 -11.26178,22.99071 -23.89648,25.5039 -12.6347,2.5132 -25.38897,-3.25968 -31.83008,-14.41601 l -13.85547,7.99414 c 9.83838,17.04053 29.50995,25.95398 48.8086,22.11523 19.29864,-3.83871 34.06841,-19.59901 36.63672,-39.10742 2.5683,-19.508372 -7.61424,-38.556951 -25.26172,-47.259766 -4.41188,-2.175685 -9.05499,-3.591005 -13.75196,-4.267578 C 644.24915,51.276227 635.73176,52.414353 628,55.695312 V 15.998047 h 55.99805 V 0.00195313 Z" transform="matrix(0.26458334,0,0,0.26458334,0,258.89999)" id="path1161" inkscape:connector-curvature="0" sodipodi:nodetypes="cccscscccsccccccc" />
    <path style="color:#000000;font-style:normal;font-variant:normal;font-weight:normal;font-stretch:normal;font-size:medium;line-height:normal;font-family:sans-serif;font-variant-ligatures:normal;font-variant-position:normal;font-variant-caps:normal;font-variant-numeric:normal;font-variant-alternates:normal;font-feature-settings:normal;text-indent:0;text-align:start;text-decoration:none;text-decoration-line:none;text-decoration-style:solid;text-decoration-color:#000000;letter-spacing:normal;word-spacing:normal;text-transform:none;writing-mode:lr-tb;direction:ltr;text-orientation:mixed;dominant-baseline:auto;baseline-shift:baseline;text-anchor:start;white-space:normal;shape-padding:0;clip-rule:nonzero;display:inline;overflow:visible;visibility:visible;opacity:1;isolation:auto;mix-blend-mode:normal;color-interpolation:sRGB;color-interpolation-filters:linearRGB;solid-color:#000000;solid-opacity:1;vector-effect:none;fill:#000000;fill-opacity:1;fill-rule:nonzero;stroke:none;stroke-width:4.23333359;stroke-linecap:butt;stroke-linejoin:bevel;stroke-miterlimit:4;stroke-dasharray:none;stroke-dashoffset:0;stroke-opacity:1;color-rendering:auto;image-rendering:auto;shape-rendering:auto;text-rendering:auto;enable-background:accumulate" d="m 198.96667,258.89999 -1e-5,4.23281 h 17.99167 l -14.77894,33.86667 h 4.6178 l 14.65905,-33.86667 -1.85208,-4.23333 z" id="path1190" inkscape:connector-curvature="0" sodipodi:nodetypes="cccccccc" />
    <path style="color:#000000;font-style:normal;font-variant:normal;font-weight:normal;font-stretch:normal;font-size:medium;line-height:normal;font-family:sans-serif;font-variant-ligatures:normal;font-variant-position:normal;font-variant-caps:normal;font-variant-numeric:normal;font-variant-alternates:normal;font-feature-settings:normal;text-indent:0;text-align:start;text-decoration:none;text-decoration-line:none;text-decoration-style:solid;text-decoration-color:#000000;letter-spacing:normal;word-spacing:normal;text-transform:none;writing-mode:lr-tb;direction:ltr;text-orientation:mixed;dominant-baseline:auto;baseline-shift:baseline;text-anchor:start;white-space:normal;shape-padding:0;clip-rule:nonzero;display:inline;overflow:visible;visibility:visible;opacity:1;isolation:auto;mix-blend-mode:normal;color-interpolation:sRGB;color-interpolation-filters:linearRGB;solid-color:#000000;solid-opacity:1;vector-effect:none;fill:#000000;fill-opacity:1;fill-rule:nonzero;stroke:none;stroke-width:4.23333359;stroke-linecap:butt;stroke-linejoin:bevel;stroke-miterlimit:4;stroke-dasharray:none;stroke-dashoffset:0;stroke-opacity:1;color-rendering:auto;image-rendering:auto;shape-rendering:auto;text-rendering:auto;enable-background:accumulate" d="m 251.88296,258.89998 -15.875,25.4 2.11667,4.23333 13.75768,-1.2e-4 v 8.4668 h 4.23437 v -8.4668 h 3.17552 v -4.23242 h -3.17552 l -3.9e-4,-25.40079 z m -6.5e-4,8.3754 v 17.02539 h -10.97044 z" id="path1215" inkscape:connector-curvature="0" sodipodi:nodetypes="cccccccccccccccc" />
    <path style="color:#000000;font-style:normal;font-variant:normal;font-weight:normal;font-stretch:normal;font-size:medium;line-height:normal;font-family:sans-serif;font-variant-ligatures:normal;font-variant-position:normal;font-variant-caps:normal;font-variant-numeric:normal;font-variant-alternates:normal;font-feature-settings:normal;text-indent:0;text-align:start;text-decoration:none;text-decoration-line:none;text-decoration-style:solid;text-decoration-color:#000000;letter-spacing:normal;word-spacing:normal;text-transform:none;writing-mode:lr-tb;direction:ltr;text-orientation:mixed;dominant-baseline:auto;baseline-shift:baseline;text-anchor:start;white-space:normal;shape-padding:0;clip-rule:nonzero;display:inline;overflow:visible;visibility:visible;opacity:1;isolation:auto;mix-blend-mode:normal;color-interpolation:sRGB;color-interpolation-filters:linearRGB;solid-color:#000000;solid-opacity:1;vector-effect:none;fill:#000000;fill-opacity:1;fill-rule:nonzero;stroke:none;stroke-width:4.23333359;stroke-linecap:butt;stroke-linejoin:miter;stroke-miterlimit:4;stroke-dasharray:none;stroke-dashoffset:0;stroke-opacity:1;color-rendering:auto;image-rendering:auto;shape-rendering:auto;text-rendering:auto;enable-background:accumulate" d="m 285.75,258.90039 c -6.17361,0 -10.13672,5.58008 -10.13672,5.58008 l 3.3418,2.59765 c 0,0 3.44353,-3.94531 6.79492,-3.94531 3.82176,0 6.34961,2.29437 6.34961,5.29297 0,1.41111 -0.67384,2.6579 -2.08399,4.18555 -1.41014,1.52765 -3.4871,3.16694 -5.66015,5.06836 -4.34611,3.80284 -9.18945,8.98844 -9.18945,17.20312 V 297 h 21.16796 v -4.23242 h -16.63476 c 0.71746,-5.27008 3.81236,-8.72352 7.44531,-11.90235 2.06028,-1.80274 4.21756,-3.47088 5.98242,-5.38281 1.76486,-1.91193 3.20703,-4.23442 3.20703,-7.05664 0,-5.46805 -4.88074,-9.52539 -10.58398,-9.52539 z" id="path5051" inkscape:connector-curvature="0" />
    <path style="color:#000000;font-style:normal;font-variant:normal;font-weight:normal;font-stretch:normal;font-size:medium;line-height:normal;font-family:sans-serif;font-variant-ligatures:normal;font-variant-position:normal;font-variant-caps:normal;font-variant-numeric:normal;font-variant-alternates:normal;font-feature-settings:normal;text-indent:0;text-align:start;text-decoration:none;text-decoration-line:none;text-decoration-style:solid;text-decoration-color:#000000;letter-spacing:normal;word-spacing:normal;text-transform:none;writing-mode:lr-tb;direction:ltr;text-orientation:mixed;dominant-baseline:auto;baseline-shift:baseline;text-anchor:start;white-space:normal;shape-padding:0;clip-rule:nonzero;display:inline;overflow:visible;visibility:visible;opacity:1;isolation:auto;mix-blend-mode:normal;color-interpolation:sRGB;color-interpolation-filters:linearRGB;solid-color:#000000;solid-opacity:1;vector-effect:none;fill:#000000;fill-opacity:1;fill-rule:evenodd;stroke:none;stroke-width:16;stroke-linecap:butt;stroke-linejoin:round;stroke-miterlimit:4;stroke-dasharray:none;stroke-dashoffset:0;stroke-opacity:1;color-rendering:auto;image-rendering:auto;shape-rendering:auto;text-rendering:auto;enable-background:accumulate" d="M 1223.7988 -0.013671875 C 1210.4038 0.034328124 1197.5421 6.6372349 1190.3438 18.300781 L 1203.9648 26.701172 C 1209.4111 17.876504 1221.3279 13.678624 1232.0234 17.320312 C 1242.719 20.962038 1248.5254 30.704118 1246.668 40.558594 C 1244.8105 50.413031 1235.46 58.001953 1223.998 58.001953 L 1223.998 73.998047 C 1237.7457 73.998047 1249.2519 83.491014 1251.584 96.349609 C 1253.9161 109.2082 1246.5312 121.79021 1233.6465 126.34961 C 1220.7618 130.909 1206.458 125.7856 1199.7051 114.41406 L 1185.9453 122.58594 C 1196.6629 140.63379 1219.0352 148.49089 1238.9844 141.43164 C 1258.9336 134.37243 1271.0576 114.08808 1267.3223 93.492188 C 1265.1919 81.746044 1258.2888 71.861749 1248.8223 65.529297 C 1255.7203 60.13835 1260.7012 52.490981 1262.3926 43.517578 C 1265.7599 25.652621 1254.7597 8.1648339 1237.1816 2.1796875 C 1232.7871 0.68341035 1228.2638 -0.029659276 1223.7988 -0.013671875 z " transform="matrix(0.26458334,0,0,0.26458334,0,258.89999)" id="ellipse5187" />
    <path style="opacity:1;vector-effect:none;fill:none;fill-opacity:1;stroke:#000000;stroke-width:4.23333359;stroke-linecap:butt;stroke-linejoin:round;stroke-miterlimit:4;stroke-dasharray:none;stroke-dashoffset:0;stroke-opacity:1" d="m 320.675,276.36248 h 3.175" id="path5191" inkscape:connector-curvature="0" />
    <path sodipodi:nodetypes="ccc" inkscape:connector-curvature="0" id="path5323" d="m 180.97502,311.81664 h -16.93333 v 16.93333" style="opacity:1;vector-effect:none;fill:none;fill-opacity:1;stroke:#000000;stroke-width:4.23333359;stroke-linecap:butt;stroke-linejoin:miter;stroke-miterlimit:4;stroke-dasharray:none;stroke-dashoffset:0;stroke-opacity:1" />
    <path sodipodi:open="true" d="m 163.81145,328.51975 a 10.054166,10.054166 0 0 1 11.55622,-1.90794 10.054166,10.054166 0 0 1 5.5213,10.32964 10.054166,10.054166 0 0 1 -8.00668,8.54865 10.054166,10.054166 0 0 1 -10.66863,-4.8339" sodipodi:end="2.6179939" sodipodi:start="3.9269908" sodipodi:ry="10.054166" sodipodi:rx="10.054166" sodipodi:cy="335.62912" sodipodi:cx="170.92082" sodipodi:type="arc" id="path5325" style="opacity:1;vector-effect:none;fill:none;fill-opacity:1;fill-rule:evenodd;stroke:#000000;stroke-width:4.23333359;stroke-linecap:butt;stroke-linejoin:round;stroke-miterlimit:4;stroke-dasharray:none;stroke-dashoffset:0;stroke-opacity:1" />
  </g>
</svg>
