<?xml version="1.0" encoding="UTF-8" standalone="no"?>
<!-- Created with Inkscape (http://www.inkscape.org/) -->

<svg xmlns:dc="http://purl.org/dc/elements/1.1/" xmlns:cc="http://creativecommons.org/ns#" xmlns:rdf="http://www.w3.org/1999/02/22-rdf-syntax-ns#" xmlns:svg="http://www.w3.org/2000/svg" xmlns="http://www.w3.org/2000/svg" xmlns:sodipodi="http://sodipodi.sourceforge.net/DTD/sodipodi-0.dtd" xmlns:inkscape="http://www.inkscape.org/namespaces/inkscape" width="1024" height="1024" viewBox="0 0 270.93333 270.93333" version="1.1" id="svg5405" inkscape:version="0.92.2 5c3e80d, 2017-08-06" sodipodi:docname="0.svg">
  <defs id="defs5399" />
  <sodipodi:namedview id="base" pagecolor="#ffffff" bordercolor="#666666" borderopacity="1.0" inkscape:pageopacity="0.0" inkscape:pageshadow="2" inkscape:zoom="0.35" inkscape:cx="84.285714" inkscape:cy="560" inkscape:document-units="px" inkscape:current-layer="layer1" showgrid="false" units="px" inkscape:window-width="1440" inkscape:window-height="855" inkscape:window-x="0" inkscape:window-y="1" inkscape:window-maximized="1" />
  <metadata id="metadata5402">
    <rdf:RDF>
      <cc:Work rdf:about="">
        <dc:format>image/svg+xml</dc:format>
        <dc:type rdf:resource="http://purl.org/dc/dcmitype/StillImage" />
        <dc:title></dc:title>
      </cc:Work>
    </rdf:RDF>
  </metadata>
  <g inkscape:label="Layer 1" inkscape:groupmode="layer" id="layer1" transform="translate(0,-26.066725)">
    <path style="color:#000000;font-style:normal;font-variant:normal;font-weight:normal;font-stretch:normal;font-size:medium;line-height:normal;font-family:sans-serif;font-variant-ligatures:normal;font-variant-position:normal;font-variant-caps:normal;font-variant-numeric:normal;font-variant-alternates:normal;font-feature-settings:normal;text-indent:0;text-align:start;text-decoration:none;text-decoration-line:none;text-decoration-style:solid;text-decoration-color:#000000;letter-spacing:normal;word-spacing:normal;text-transform:none;writing-mode:lr-tb;direction:ltr;text-orientation:mixed;dominant-baseline:auto;baseline-shift:baseline;text-anchor:start;white-space:normal;shape-padding:0;clip-rule:nonzero;display:inline;overflow:visible;visibility:visible;opacity:1;isolation:auto;mix-blend-mode:normal;color-interpolation:sRGB;color-interpolation-filters:linearRGB;solid-color:#000000;solid-opacity:1;vector-effect:none;fill:#000000;fill-opacity:1;fill-rule:evenodd;stroke:none;stroke-width:4.23333359;stroke-linecap:butt;stroke-linejoin:round;stroke-miterlimit:4;stroke-dasharray:none;stroke-dashoffset:0;stroke-opacity:1;color-rendering:auto;image-rendering:auto;shape-rendering:auto;text-rendering:auto;enable-background:accumulate" d="m 63.50586,66.285335 c -22.13097,5e-5 -39.62532,12.4579 -49.58008,30.1953 C 3.9710201,114.21809 0,136.95174 0,161.52948 c 0,24.57771 3.9710201,47.31141 13.92578,65.04881 9.95476,17.73744 27.449089,30.20515 49.58008,30.2051 22.131001,5e-5 39.62532,-12.46766 49.58007,-30.2051 9.95476,-17.7374 13.91602,-40.4711 13.91602,-65.04881 0,-24.57774 -3.96126,-47.31139 -13.91602,-65.048845 -9.95475,-17.7374 -27.44909,-30.19525 -49.58007,-30.1953 z m 0,21.1621 c 14.91071,5e-5 23.870131,6.488699 31.11328,19.394555 7.24314,12.90585 11.2207,32.5051 11.2207,54.68749 0,22.18236 -3.97756,41.7914 -11.2207,54.69725 -7.243149,12.9059 -16.202589,19.39456 -31.11328,19.39456 -14.910671,0 -23.8799,-6.48866 -31.123051,-19.39456 C 25.13966,203.32088 21.17187,183.71184 21.17187,161.52948 c 0,-22.18239 3.96779,-41.78164 11.210939,-54.68749 C 39.62596,93.936134 48.595171,87.447485 63.50586,87.447435 Z" id="path1118" inkscape:connector-curvature="0" />
  </g>
</svg>
