<?xml version="1.0" encoding="UTF-8" standalone="no"?>
<!-- Created with Inkscape (http://www.inkscape.org/) -->

<svg xmlns:dc="http://purl.org/dc/elements/1.1/" xmlns:cc="http://creativecommons.org/ns#" xmlns:rdf="http://www.w3.org/1999/02/22-rdf-syntax-ns#" xmlns:svg="http://www.w3.org/2000/svg" xmlns="http://www.w3.org/2000/svg" xmlns:sodipodi="http://sodipodi.sourceforge.net/DTD/sodipodi-0.dtd" xmlns:inkscape="http://www.inkscape.org/namespaces/inkscape" width="1024" height="1024" viewBox="0 0 270.93333 270.93333" version="1.1" id="svg5405" inkscape:version="0.92.2 5c3e80d, 2017-08-06" sodipodi:docname="3.svg">
  <defs id="defs5399" />
  <sodipodi:namedview id="base" pagecolor="#ffffff" bordercolor="#666666" borderopacity="1.0" inkscape:pageopacity="0.0" inkscape:pageshadow="2" inkscape:zoom="0.35" inkscape:cx="84.285714" inkscape:cy="560" inkscape:document-units="px" inkscape:current-layer="layer1" showgrid="false" units="px" inkscape:window-width="1440" inkscape:window-height="855" inkscape:window-x="0" inkscape:window-y="1" inkscape:window-maximized="1" />
  <metadata id="metadata5402">
    <rdf:RDF>
      <cc:Work rdf:about="">
        <dc:format>image/svg+xml</dc:format>
        <dc:type rdf:resource="http://purl.org/dc/dcmitype/StillImage" />
        <dc:title></dc:title>
      </cc:Work>
    </rdf:RDF>
  </metadata>
  <g inkscape:label="Layer 1" inkscape:groupmode="layer" id="layer1" transform="translate(0,-26.066725)">
    <path style="color:#000000;font-style:normal;font-variant:normal;font-weight:normal;font-stretch:normal;font-size:medium;line-height:normal;font-family:sans-serif;font-variant-ligatures:normal;font-variant-position:normal;font-variant-caps:normal;font-variant-numeric:normal;font-variant-alternates:normal;font-feature-settings:normal;text-indent:0;text-align:start;text-decoration:none;text-decoration-line:none;text-decoration-style:solid;text-decoration-color:#000000;letter-spacing:normal;word-spacing:normal;text-transform:none;writing-mode:lr-tb;direction:ltr;text-orientation:mixed;dominant-baseline:auto;baseline-shift:baseline;text-anchor:start;white-space:normal;shape-padding:0;clip-rule:nonzero;display:inline;overflow:visible;visibility:visible;opacity:1;isolation:auto;mix-blend-mode:normal;color-interpolation:sRGB;color-interpolation-filters:linearRGB;solid-color:#000000;solid-opacity:1;vector-effect:none;fill:#000000;fill-opacity:1;fill-rule:evenodd;stroke:none;stroke-width:4.23333359;stroke-linecap:butt;stroke-linejoin:round;stroke-miterlimit:4;stroke-dasharray:none;stroke-dashoffset:0;stroke-opacity:1;color-rendering:auto;image-rendering:auto;shape-rendering:auto;text-rendering:auto;enable-background:accumulate" d="m 50.077,66.261263 c -17.7205,0.0635 -34.7354,8.7986 -44.2582,24.2285 L 23.8383,101.60279 C 31.0433,89.928483 46.8082,84.375033 60.9575,89.192683 75.1069,94.010382 82.7882,106.89834 80.331,119.93499 77.8737,132.97159 65.5038,143.0111 50.3405,143.0111 l -15.8724,-0.003 v 21.16666 l 15.8724,-0.003 c 18.1871,0 33.4088,12.55841 36.494,29.56926 3.0852,17.01084 -6.6844,33.65579 -23.7298,39.6875 -17.0454,6.03169 -35.9681,-0.74614 -44.9017,-15.78974 L 0,228.4495 c 14.1785,23.8758 43.7752,34.27009 70.1663,24.93129 26.3911,-9.33875 42.4302,-36.17325 37.4887,-63.4199 -2.8184,-15.53917 -11.9506,-28.61527 -24.474,-36.99258 9.1255,-7.13177 15.7148,-17.24859 17.9524,-29.11967 C 105.588,100.21479 91.0357,77.079913 67.7813,69.162053 61.9678,67.182603 55.9838,66.239273 50.077,66.260423 Z" id="ellipse5187" inkscape:connector-curvature="0" sodipodi:nodetypes="cccccccccsccccccccc" />
  </g>
</svg>
