<?xml version="1.0" encoding="UTF-8" standalone="no"?>
<!-- Created with Inkscape (http://www.inkscape.org/) -->

<svg xmlns:dc="http://purl.org/dc/elements/1.1/" xmlns:cc="http://creativecommons.org/ns#" xmlns:rdf="http://www.w3.org/1999/02/22-rdf-syntax-ns#" xmlns:svg="http://www.w3.org/2000/svg" xmlns="http://www.w3.org/2000/svg" xmlns:sodipodi="http://sodipodi.sourceforge.net/DTD/sodipodi-0.dtd" xmlns:inkscape="http://www.inkscape.org/namespaces/inkscape" width="1024" height="1024" viewBox="0 0 270.93333 270.93333" version="1.1" id="svg5405" inkscape:version="0.92.2 5c3e80d, 2017-08-06" sodipodi:docname="8.svg">
  <defs id="defs5399" />
  <sodipodi:namedview id="base" pagecolor="#ffffff" bordercolor="#666666" borderopacity="1.0" inkscape:pageopacity="0.0" inkscape:pageshadow="2" inkscape:zoom="0.35" inkscape:cx="84.285714" inkscape:cy="560" inkscape:document-units="px" inkscape:current-layer="layer1" showgrid="false" units="px" inkscape:window-width="1440" inkscape:window-height="855" inkscape:window-x="0" inkscape:window-y="1" inkscape:window-maximized="1" />
  <metadata id="metadata5402">
    <rdf:RDF>
      <cc:Work rdf:about="">
        <dc:format>image/svg+xml</dc:format>
        <dc:type rdf:resource="http://purl.org/dc/dcmitype/StillImage" />
        <dc:title></dc:title>
      </cc:Work>
    </rdf:RDF>
  </metadata>
  <g inkscape:label="Layer 1" inkscape:groupmode="layer" id="layer1" transform="translate(0,-26.066725)">
    <path style="color:#000000;font-style:normal;font-variant:normal;font-weight:normal;font-stretch:normal;font-size:medium;line-height:normal;font-family:sans-serif;font-variant-ligatures:normal;font-variant-position:normal;font-variant-caps:normal;font-variant-numeric:normal;font-variant-alternates:normal;font-feature-settings:normal;text-indent:0;text-align:start;text-decoration:none;text-decoration-line:none;text-decoration-style:solid;text-decoration-color:#000000;letter-spacing:normal;word-spacing:normal;text-transform:none;writing-mode:lr-tb;direction:ltr;text-orientation:mixed;dominant-baseline:auto;baseline-shift:baseline;text-anchor:start;white-space:normal;shape-padding:0;clip-rule:nonzero;display:inline;overflow:visible;visibility:visible;opacity:1;isolation:auto;mix-blend-mode:normal;color-interpolation:sRGB;color-interpolation-filters:linearRGB;solid-color:#000000;solid-opacity:1;vector-effect:none;fill:#000000;fill-opacity:1;fill-rule:evenodd;stroke:none;stroke-width:4.23333359;stroke-linecap:butt;stroke-linejoin:round;stroke-miterlimit:4;stroke-dasharray:none;stroke-dashoffset:0;stroke-opacity:1;color-rendering:auto;image-rendering:auto;shape-rendering:auto;text-rendering:auto;enable-background:accumulate" d="m 58.203181,66.285964 c -28.000102,0 -51.591172,21.64309 -51.591172,48.945336 0,15.28844 7.398991,28.79875 18.825721,37.73156 C 10.1395,163.20678 0,180.38876 0,199.89797 c 0,31.455 26.33983,56.88542 58.203181,56.88542 31.863353,0 58.213489,-25.43042 58.213489,-56.88542 0,-19.51036 -10.14287,-36.69399 -25.445466,-46.9377 11.425106,-8.93284 18.823136,-22.44181 18.823136,-37.72897 0,-27.302246 -23.591109,-48.945336 -51.591159,-48.945336 z m 0,21.1615 c 17.298789,0 30.429663,12.709786 30.429663,27.783836 0,15.07406 -13.130874,27.78384 -30.429663,27.78384 -17.298802,0 -30.429681,-12.70978 -30.429681,-27.78384 0,-15.07405 13.130879,-27.783836 30.429681,-27.783836 z m 0,76.729176 c 20.741748,0 37.041673,16.03244 37.041673,35.72133 0,19.68885 -16.299925,35.72392 -37.041673,35.72392 -20.741801,0 -37.039091,-16.03507 -37.039091,-35.72392 0,-19.68889 16.29729,-35.72133 37.039091,-35.72133 z" id="circle1138" inkscape:connector-curvature="0" />
  </g>
</svg>
