<?xml version="1.0" encoding="UTF-8" standalone="no"?>
<!-- Created with Inkscape (http://www.inkscape.org/) -->

<svg xmlns:dc="http://purl.org/dc/elements/1.1/" xmlns:cc="http://creativecommons.org/ns#" xmlns:rdf="http://www.w3.org/1999/02/22-rdf-syntax-ns#" xmlns:svg="http://www.w3.org/2000/svg" xmlns="http://www.w3.org/2000/svg" xmlns:sodipodi="http://sodipodi.sourceforge.net/DTD/sodipodi-0.dtd" xmlns:inkscape="http://www.inkscape.org/namespaces/inkscape" width="1024" height="1024" viewBox="0 0 270.93333 270.93333" version="1.1" id="svg5405" inkscape:version="0.92.2 5c3e80d, 2017-08-06" sodipodi:docname="9.svg">
  <defs id="defs5399" />
  <sodipodi:namedview id="base" pagecolor="#ffffff" bordercolor="#666666" borderopacity="1.0" inkscape:pageopacity="0.0" inkscape:pageshadow="2" inkscape:zoom="0.35" inkscape:cx="84.285714" inkscape:cy="560" inkscape:document-units="px" inkscape:current-layer="layer1" showgrid="false" units="px" inkscape:window-width="1440" inkscape:window-height="855" inkscape:window-x="0" inkscape:window-y="1" inkscape:window-maximized="1" />
  <metadata id="metadata5402">
    <rdf:RDF>
      <cc:Work rdf:about="">
        <dc:format>image/svg+xml</dc:format>
        <dc:type rdf:resource="http://purl.org/dc/dcmitype/StillImage" />
        <dc:title></dc:title>
      </cc:Work>
    </rdf:RDF>
  </metadata>
  <g inkscape:label="Layer 1" inkscape:groupmode="layer" id="layer1" transform="translate(0,-26.066725)">
    <path style="color:#000000;font-style:normal;font-variant:normal;font-weight:normal;font-stretch:normal;font-size:medium;line-height:normal;font-family:sans-serif;font-variant-ligatures:normal;font-variant-position:normal;font-variant-caps:normal;font-variant-numeric:normal;font-variant-alternates:normal;font-feature-settings:normal;text-indent:0;text-align:start;text-decoration:none;text-decoration-line:none;text-decoration-style:solid;text-decoration-color:#000000;letter-spacing:normal;word-spacing:normal;text-transform:none;writing-mode:lr-tb;direction:ltr;text-orientation:mixed;dominant-baseline:auto;baseline-shift:baseline;text-anchor:start;white-space:normal;shape-padding:0;clip-rule:nonzero;display:inline;overflow:visible;visibility:visible;opacity:1;isolation:auto;mix-blend-mode:normal;color-interpolation:sRGB;color-interpolation-filters:linearRGB;solid-color:#000000;solid-opacity:1;vector-effect:none;fill:#000000;fill-opacity:1;fill-rule:evenodd;stroke:none;stroke-width:4.23333359;stroke-linecap:butt;stroke-linejoin:round;stroke-miterlimit:4;stroke-dasharray:none;stroke-dashoffset:0;stroke-opacity:1;color-rendering:auto;image-rendering:auto;shape-rendering:auto;text-rendering:auto;enable-background:accumulate" d="m 55.56762,256.78339 c 20.49784,0 38.90761,-12.91391 48.45699,-32.37271 9.48924,-19.3363 9.75651,-41.49303 9.75651,-62.87213 0,-21.379 -0.26731,-43.5332 -9.75651,-62.869541 -0.2303,-0.46931 -0.49071,-0.91558 -0.73123,-1.37718 -1.2495,-2.39807 -2.63263,-4.68974 -4.14186,-6.86521 -0.26041,-0.37788 -0.52286,-0.75289 -0.79064,-1.12397 -0.33558,-0.46163 -0.67129,-0.92172 -1.01804,-1.37202 -8.51126,-11.1415 -20.42172,-18.92898 -34.18396,-21.04781 -0.0231,-0.004 -0.0466,-0.007 -0.0697,-0.0106 -0.84699,-0.12911 -1.69994,-0.23737 -2.56057,-0.32296 -0.521,-0.0534 -1.04395,-0.10293 -1.56838,-0.13953 -0.30159,-0.0204 -0.60381,-0.0367 -0.90691,-0.0517 -0.82556,-0.0422 -1.65274,-0.0724 -2.48564,-0.0724 C 23.99738,66.285629 0,95.693649 0,129.78045 c 0,34.08675 23.99738,63.50776 55.56768,63.50776 14.32462,0 27.07783,-6.07109 36.7497,-15.87242 -0.61495,14.63554 -2.42417,27.74071 -7.29672,37.66954 -6.52013,13.28605 -17.81183,20.53622 -29.45298,20.53622 -20.33208,0 -31.95413,-12.51862 -31.95413,-12.51862 L 8.1468,237.55425 c 0,0 18.07058,19.2288 47.42088,19.2288 z m 0,-84.66668 c -18.11225,0 -34.39584,-17.97256 -34.39584,-42.33591 0,-24.36337 16.28359,-42.333341 34.39584,-42.333341 0.65422,0 1.3073,0.0319 1.95853,0.0775 0.24604,0.0176 0.49127,0.043 0.73639,0.0672 0.36861,0.0356 0.73623,0.0791 1.10329,0.12925 0.34308,0.0477 0.68493,0.0971 1.02578,0.15762 0.21865,0.0381 0.43579,0.086 0.6537,0.12924 6.37055,1.28659 12.30706,4.76999 17.12299,9.91154 0.23139,0.24994 0.46065,0.50377 0.68731,0.76223 0.18354,0.20673 0.36777,0.41106 0.54776,0.6227 2.11664,2.521431 4.01265,5.419731 5.61723,8.689391 1.15168,2.3468 2.12373,4.88124 2.95848,7.56027 1.2725,4.40072 1.98179,9.17216 1.98179,14.22653 0,24.36334 -16.281,42.33592 -34.39325,42.33592 z" id="path1122" inkscape:connector-curvature="0" />
  </g>
</svg>
